<?xml version="1.0" encoding="UTF-8"?>
<svg width="40px" height="40px" viewBox="0 0 40 40" version="1.1" xmlns="http://www.w3.org/2000/svg" xmlns:xlink="http://www.w3.org/1999/xlink">
    <title>icon/local</title>
    <g id="控件" stroke="none" stroke-width="1" fill="none" fill-rule="evenodd">
        <g id="icon/local" fill="#FFFFFF" fill-rule="nonzero">
            <g id="编组" transform="translate(9.090909, 6.363636)">
                <path d="M10.9090909,0 C4.88645821,0 0,4.83093028 0,10.7954545 C0,14.7959951 1.96037271,18.8659962 5.20616516,22.8236499 C6.32730888,24.1906808 7.52651566,25.447395 8.72616709,26.5675241 L8.97487027,26.7977243 L9.44923926,27.2253252 C9.52558571,27.292893 9.60052284,27.358593 9.67397298,27.4223978 L10.2090053,27.8756871 L10.3451476,27.985759 C10.6756688,28.2471712 11.142513,28.2471712 11.4730342,27.985759 L11.8072781,27.7107378 L12.1442088,27.4223978 L12.6021321,27.017046 C12.7603069,26.8744941 12.9238083,26.7245805 13.0920147,26.5675241 C14.2916662,25.447395 15.4908729,24.1906808 16.6120167,22.8236499 C19.8578091,18.8659962 21.8181818,14.7959951 21.8181818,10.7954545 C21.8181818,4.83093028 16.9317236,0 10.9090909,0 Z M10.9090909,1.81818182 C15.9321915,1.81818182 20,5.83976518 20,10.7954545 C20,14.2920731 18.2103727,18.0075834 15.2061652,21.6706683 C14.1398089,22.9708959 12.9952657,24.1703251 11.8511671,25.2385838 L11.6148703,25.457307 C11.4597787,25.5996005 11.3096714,25.734811 11.1651768,25.8627043 L10.9080909,26.0860909 L10.6530051,25.8627043 L10.2033115,25.457307 C10.1257658,25.3861603 10.046974,25.3132428 9.96701473,25.2385838 C8.82291616,24.1703251 7.67837294,22.9708959 6.61201666,21.6706683 C3.60780911,18.0075834 1.81818182,14.2920731 1.81818182,10.7954545 C1.81818182,5.83976518 5.88599028,1.81818182 10.9090909,1.81818182 Z" id="路径"></path>
                <path d="M10.9090909,5.93181818 C8.20019154,5.93181818 6,8.10700755 6,10.7954545 C6,13.4839015 8.20019154,15.6590909 10.9090909,15.6590909 C13.6179903,15.6590909 15.8181818,13.4839015 15.8181818,10.7954545 C15.8181818,8.10700755 13.6179903,5.93181818 10.9090909,5.93181818 Z M10.9090909,7.75 C12.6184582,7.75 14,9.11584245 14,10.7954545 C14,12.4750666 12.6184582,13.8409091 10.9090909,13.8409091 C9.19972361,13.8409091 7.81818182,12.4750666 7.81818182,10.7954545 C7.81818182,9.11584245 9.19972361,7.75 10.9090909,7.75 Z" id="路径"></path>
            </g>
        </g>
    </g>
</svg>