<?xml version="1.0" encoding="UTF-8"?>
<svg width="40px" height="40px" viewBox="0 0 40 40" version="1.1" xmlns="http://www.w3.org/2000/svg" xmlns:xlink="http://www.w3.org/1999/xlink">
    <title>icon/phone</title>
    <g id="控件" stroke="none" stroke-width="1" fill="none" fill-rule="evenodd">
        <g id="icon/phone" fill="#FFFFFF" fill-rule="nonzero">
            <g id="编组" transform="translate(7.196512, 8.181818)">
                <path d="M14.792042,-0.879489236 C16.0243715,-1.06640202 17.283477,-1.00426887 18.4920183,-0.695914827 C20.1318434,-0.277515167 21.6348654,0.581809703 22.8543474,1.82265307 C24.0722261,3.06187225 24.9144025,4.58695049 25.3239869,6.24917191 C25.625517,7.47268866 25.6862532,8.7469606 25.5035071,9.99431511 C25.4246611,10.5324868 24.9244695,10.904844 24.3862978,10.825998 C23.8481261,10.7471521 23.4757689,10.2469605 23.5546149,9.70878877 C23.7004466,8.71339764 23.6519619,7.69616748 23.411503,6.72045888 C23.0857366,5.39839714 22.4174141,4.18814698 21.4495197,3.20329246 C20.4833144,2.22016242 19.298159,1.54257187 18.0050562,1.21263804 C17.0522829,0.969542085 16.0592185,0.92053728 15.0874163,1.06793475 C14.54965,1.14950011 14.0475825,0.779676182 13.9660172,0.241909898 C13.8844518,-0.295856387 14.2542758,-0.797923881 14.792042,-0.879489236 Z" id="路径"></path>
                <path d="M15.0326082,3.84439325 C16.5549869,3.61347614 18.1045785,4.11797892 19.2114365,5.24415149 C20.3137663,6.36579699 20.8054049,7.92942154 20.5805447,9.46427629 C20.5017011,10.0024484 20.0015111,10.3748077 19.463339,10.2959641 C18.925167,10.2171205 18.5528077,9.71693044 18.6316513,9.17875838 C18.7682907,8.24608227 18.4711181,7.3009442 17.8066315,6.62481395 C17.1935923,6.00107737 16.3600912,5.69941686 15.521508,5.76911605 L15.3279967,5.7918151 C14.790231,5.87338436 14.2881608,5.50356408 14.2065915,4.96579839 C14.1250223,4.42803269 14.4948425,3.92596251 15.0326082,3.84439325 Z" id="路径"></path>
                <path d="M6.75433598,1.0707069 L3.46407994,1.0707069 C1.1082314,1.0707069 -0.565780213,3.31952651 0.178875644,5.56512974 C1.8031034,10.4631572 3.98688428,14.8015183 6.81548385,17.6796242 C9.64552161,20.5593099 13.9129261,22.7833111 18.7301668,24.4372126 C20.9609694,25.2031772 23.1793305,23.4934743 23.1793305,21.1141437 L23.1793305,17.7657058 C23.1793305,16.9329455 22.7343331,16.1631271 22.0124166,15.7548161 L19.1460465,14.1332748 L18.9778189,14.0471135 C18.3513422,13.7584474 17.625019,13.7697686 17.0039638,14.085791 L14.2753066,15.473 L14.1882187,15.4463422 C14.0575951,15.4051717 13.904721,15.3523714 13.733682,15.2866266 C13.0563656,15.0262767 12.378021,14.6628409 11.7481872,14.1823752 C11.4740479,13.9732493 11.2146536,13.7456754 10.9721309,13.4989117 C10.7264784,13.2489547 10.499858,12.9810524 10.2915958,12.6975061 C9.81993528,12.0553464 9.46189589,11.3630231 9.20442489,10.6713923 L9.14346051,10.5026647 C9.10558212,10.3944843 9.07317036,10.2951184 9.04585056,10.2057988 L9.01430662,10.098 L10.3852711,7.30862846 C10.7178437,6.63194266 10.7009123,5.83343842 10.3398563,5.17162195 L8.75306117,2.26317725 C8.35235974,1.52888319 7.58740423,1.0707069 6.75433598,1.0707069 Z M3.46407994,3.04040387 L6.75433598,3.04040387 C6.86367767,3.04040387 6.96711315,3.10235738 7.02400707,3.20661674 L8.61075021,6.11496616 C8.6652185,6.21480664 8.66782032,6.33751179 8.61750314,6.43989219 L7.08880577,9.55086056 C6.99451427,9.74274803 6.9652279,9.96010841 7.00537041,10.170109 C7.18801091,11.1255704 7.69663361,12.4918568 8.70409924,13.8635082 C8.96693108,14.2213503 9.2542756,14.5610385 9.56731323,14.8795613 C9.87671026,15.1943688 10.206399,15.483614 10.553534,15.7484243 C11.9075678,16.7813425 13.2584632,17.3006057 14.205082,17.4853423 C14.4207993,17.5274404 14.6443996,17.4961705 14.8402924,17.39651 L17.8971749,15.8413194 C17.9859787,15.7961318 18.0891798,15.7984288 18.1762067,15.84766 L21.0426472,17.4692412 C21.1441148,17.5266306 21.2096335,17.639974 21.2096335,17.7657058 L21.2096335,21.1141437 C21.2096335,22.177125 20.2861122,22.8888879 19.369799,22.5742642 C14.8171002,21.0111877 10.7873202,18.911027 8.22031362,16.2989869 C5.65173671,13.6854545 3.585835,9.58127557 2.04846007,4.9451618 C1.73121863,3.98848041 2.43696271,3.04040387 3.46407994,3.04040387 Z" id="路径"></path>
            </g>
        </g>
    </g>
</svg>